<?xml version="1.0" encoding="utf-8" standalone="no"?>
<!DOCTYPE svg PUBLIC "-//W3C//DTD SVG 1.1//EN"
  "http://www.w3.org/Graphics/SVG/1.1/DTD/svg11.dtd">
<svg xmlns:xlink="http://www.w3.org/1999/xlink" width="432pt" height="432pt" viewBox="0 0 432 432" xmlns="http://www.w3.org/2000/svg" version="1.1">
 <metadata>
  <rdf:RDF xmlns:dc="http://purl.org/dc/elements/1.1/" xmlns:cc="http://creativecommons.org/ns#" xmlns:rdf="http://www.w3.org/1999/02/22-rdf-syntax-ns#">
   <cc:Work>
    <dc:type rdf:resource="http://purl.org/dc/dcmitype/StillImage"/>
    <dc:date>2024-12-26T10:11:03.632498</dc:date>
    <dc:format>image/svg+xml</dc:format>
    <dc:creator>
     <cc:Agent>
      <dc:title>Matplotlib v3.9.1, https://matplotlib.org/</dc:title>
     </cc:Agent>
    </dc:creator>
   </cc:Work>
  </rdf:RDF>
 </metadata>
 <defs>
  <style type="text/css">*{stroke-linejoin: round; stroke-linecap: butt}</style>
 </defs>
 <g id="figure_1">
  <g id="patch_1">
   <path d="M 0 432 
L 432 432 
L 432 0 
L 0 0 
L 0 432 
z
" style="fill: none"/>
  </g>
  <g id="axes_1">
   <g id="patch_2">
    <path d="M 398.233487 216 
C 398.233487 190.049223 393.12175 164.350784 383.190817 140.375392 
C 373.259885 116.4 358.702889 94.613916 340.352918 76.263945 
C 322.002947 57.913975 300.216863 43.356979 276.241471 33.426046 
C 252.266079 23.495114 226.567641 18.383376 200.616863 18.383376 
C 174.666086 18.383376 148.967648 23.495114 124.992256 33.426046 
C 101.016864 43.356979 79.23078 57.913975 60.880809 76.263945 
C 42.530838 94.613916 27.973842 116.4 18.04291 140.375392 
C 8.111977 164.350784 3.00024 190.049223 3.00024 216 
C 3.00024 241.950777 8.111977 267.649216 18.04291 291.624608 
C 27.973842 315.6 42.530838 337.386084 60.880809 355.736055 
C 79.23078 374.086025 101.016864 388.643021 124.992256 398.573954 
C 148.967648 408.504886 174.666086 413.616624 200.616863 413.616624 
C 226.567641 413.616624 252.266079 408.504886 276.241471 398.573954 
C 300.216863 388.643021 322.002947 374.086025 340.352918 355.736055 
C 358.702889 337.386084 373.259885 315.6 383.190817 291.624608 
C 393.12175 267.649216 398.233487 241.950777 398.233487 216 
M 200.616863 216 
C 200.616863 216 200.616863 216 200.616863 216 
C 200.616863 216 200.616863 216 200.616863 216 
C 200.616863 216 200.616863 216 200.616863 216 
C 200.616863 216 200.616863 216 200.616863 216 
C 200.616863 216 200.616863 216 200.616863 216 
C 200.616863 216 200.616863 216 200.616863 216 
C 200.616863 216 200.616863 216 200.616863 216 
C 200.616863 216 200.616863 216 200.616863 216 
C 200.616863 216 200.616863 216 200.616863 216 
C 200.616863 216 200.616863 216 200.616863 216 
C 200.616863 216 200.616863 216 200.616863 216 
C 200.616863 216 200.616863 216 200.616863 216 
C 200.616863 216 200.616863 216 200.616863 216 
C 200.616863 216 200.616863 216 200.616863 216 
C 200.616863 216 200.616863 216 200.616863 216 
C 200.616863 216 200.616863 216 200.616863 216 
z
" style="fill: #ffffff"/>
   </g>
   <g id="patch_3">
    <path d="M 200.616863 216 
C 200.616863 216 200.616863 216 200.616863 216 
C 200.616863 216 200.616863 216 200.616863 216 
C 200.616863 216 200.616863 216 200.616863 216 
C 200.616863 216 200.616863 216 200.616863 216 
C 200.616863 216 200.616863 216 200.616863 216 
C 200.616863 216 200.616863 216 200.616863 216 
C 200.616863 216 200.616863 216 200.616863 216 
C 200.616863 216 200.616863 216 200.616863 216 
C 200.616863 216 200.616863 216 200.616863 216 
C 200.616863 216 200.616863 216 200.616863 216 
C 200.616863 216 200.616863 216 200.616863 216 
C 200.616863 216 200.616863 216 200.616863 216 
C 200.616863 216 200.616863 216 200.616863 216 
C 200.616863 216 200.616863 216 200.616863 216 
C 200.616863 216 200.616863 216 200.616863 216 
C 200.616863 216 200.616863 216 200.616863 216 
L 144.154971 216 
C 144.154971 208.585492 145.615467 201.243081 148.452877 194.392969 
C 151.290286 187.542857 155.449428 181.318262 160.692276 176.075413 
C 165.935125 170.832564 172.159721 166.673423 179.009833 163.836013 
C 185.859945 160.998604 193.202356 159.538108 200.616863 159.538108 
C 208.031371 159.538108 215.373782 160.998604 222.223894 163.836013 
C 229.074006 166.673423 235.298602 170.832564 240.541451 176.075413 
C 245.784299 181.318262 249.943441 187.542857 252.78085 194.392969 
C 255.61826 201.243081 257.078756 208.585492 257.078756 216 
C 257.078756 223.414508 255.61826 230.756919 252.78085 237.607031 
C 249.943441 244.457143 245.784299 250.681738 240.541451 255.924587 
C 235.298602 261.167436 229.074006 265.326577 222.223894 268.163987 
C 215.373782 271.001396 208.031371 272.461892 200.616863 272.461892 
C 193.202356 272.461892 185.859945 271.001396 179.009833 268.163987 
C 172.159721 265.326577 165.935125 261.167436 160.692276 255.924587 
C 155.449428 250.681738 151.290286 244.457143 148.452877 237.607031 
C 145.615467 230.756919 144.154971 223.414508 144.154971 216 
z
" clip-path="url(#p7e5b67423f)" style="fill: #555555"/>
   </g>
   <g id="patch_4">
    <path d="M 144.154971 216 
C 144.154971 223.414508 145.615467 230.756919 148.452877 237.607031 
C 151.290286 244.457143 155.449428 250.681738 160.692276 255.924587 
C 165.935125 261.167436 172.159721 265.326577 179.009833 268.163987 
C 185.859945 271.001396 193.202356 272.461892 200.616863 272.461892 
C 208.031371 272.461892 215.373782 271.001396 222.223894 268.163987 
C 229.074006 265.326577 235.298602 261.167436 240.541451 255.924587 
C 245.784299 250.681738 249.943441 244.457143 252.78085 237.607031 
C 255.61826 230.756919 257.078756 223.414508 257.078756 216 
C 257.078756 208.585492 255.61826 201.243081 252.78085 194.392969 
C 249.943441 187.542857 245.784299 181.318262 240.541451 176.075413 
C 235.298602 170.832564 229.074006 166.673423 222.223894 163.836013 
C 215.373782 160.998604 208.031371 159.538108 200.616863 159.538108 
C 193.202356 159.538108 185.859945 160.998604 179.009833 163.836013 
C 172.159721 166.673423 165.935125 170.832564 160.692276 176.075413 
C 155.449428 181.318262 151.290286 187.542857 148.452877 194.392969 
C 145.615467 201.243081 144.154971 208.585492 144.154971 216 
L 115.924025 216 
C 115.924025 204.878238 118.114769 193.864622 122.370883 183.589454 
C 126.626997 173.314286 132.86571 163.977393 140.729983 156.113119 
C 148.594256 148.248846 157.931149 142.010134 168.206317 137.75402 
C 178.481485 133.497906 189.495102 131.307161 200.616863 131.307161 
C 211.738625 131.307161 222.752242 133.497906 233.02741 137.75402 
C 243.302578 142.010134 252.639471 148.248846 260.503744 156.113119 
C 268.368017 163.977393 274.60673 173.314286 278.862844 183.589454 
C 283.118958 193.864622 285.309702 204.878238 285.309702 216 
C 285.309702 227.121762 283.118958 238.135378 278.862844 248.410546 
C 274.60673 258.685714 268.368017 268.022607 260.503744 275.886881 
C 252.639471 283.751154 243.302578 289.989866 233.02741 294.24598 
C 222.752242 298.502094 211.738625 300.692839 200.616863 300.692839 
C 189.495102 300.692839 178.481485 298.502094 168.206317 294.24598 
C 157.931149 289.989866 148.594256 283.751154 140.729983 275.886881 
C 132.86571 268.022607 126.626997 258.685714 122.370883 248.410546 
C 118.114769 238.135378 115.924025 227.121762 115.924025 216 
z
" clip-path="url(#p7e5b67423f)" style="fill: #9c0008"/>
   </g>
   <g id="patch_5">
    <path d="M 115.924025 216 
C 115.924025 227.121762 118.114769 238.135378 122.370883 248.410546 
C 126.626997 258.685714 132.86571 268.022607 140.729983 275.886881 
C 148.594256 283.751154 157.931149 289.989866 168.206317 294.24598 
C 178.481485 298.502094 189.495102 300.692839 200.616863 300.692839 
C 211.738625 300.692839 222.752242 298.502094 233.02741 294.24598 
C 243.302578 289.989866 252.639471 283.751154 260.503744 275.886881 
C 268.368017 268.022607 274.60673 258.685714 278.862844 248.410546 
C 283.118958 238.135378 285.309702 227.121762 285.309702 216 
C 285.309702 204.878238 283.118958 193.864622 278.862844 183.589454 
C 274.60673 173.314286 268.368017 163.977393 260.503744 156.113119 
C 252.639471 148.248846 243.302578 142.010134 233.02741 137.75402 
C 222.752242 133.497906 211.738625 131.307161 200.616863 131.307161 
C 189.495102 131.307161 178.481485 133.497906 168.206317 137.75402 
C 157.931149 142.010134 148.594256 148.248846 140.729983 156.113119 
C 132.86571 163.977393 126.626997 173.314286 122.370883 183.589454 
C 118.114769 193.864622 115.924025 204.878238 115.924025 216 
L 87.693079 216 
C 87.693079 201.170984 90.614071 186.486162 96.28889 172.785938 
C 101.963709 159.085714 110.281992 146.636523 120.767689 136.150826 
C 131.253387 125.665129 143.702578 117.346845 157.402802 111.672026 
C 171.103026 105.997208 185.787848 103.076215 200.616863 103.076215 
C 215.445879 103.076215 230.130701 105.997208 243.830925 111.672026 
C 257.531149 117.346845 269.98034 125.665129 280.466038 136.150826 
C 290.951735 146.636523 299.270018 159.085714 304.944837 172.785938 
C 310.619656 186.486162 313.540648 201.170984 313.540648 216 
C 313.540648 230.829016 310.619656 245.513838 304.944837 259.214062 
C 299.270018 272.914286 290.951735 285.363477 280.466038 295.849174 
C 269.98034 306.334871 257.531149 314.653155 243.830925 320.327974 
C 230.130701 326.002792 215.445879 328.923785 200.616863 328.923785 
C 185.787848 328.923785 171.103026 326.002792 157.402802 320.327974 
C 143.702578 314.653155 131.253387 306.334871 120.767689 295.849174 
C 110.281992 285.363477 101.963709 272.914286 96.28889 259.214062 
C 90.614071 245.513838 87.693079 230.829016 87.693079 216 
z
" clip-path="url(#p7e5b67423f)" style="fill: #3b853b"/>
   </g>
   <g id="patch_6">
    <path d="M 87.693079 216 
C 87.693079 230.829016 90.614071 245.513838 96.28889 259.214062 
C 101.963709 272.914286 110.281992 285.363477 120.767689 295.849174 
C 131.253387 306.334871 143.702578 314.653155 157.402802 320.327974 
C 171.103026 326.002792 185.787848 328.923785 200.616863 328.923785 
C 215.445879 328.923785 230.130701 326.002792 243.830925 320.327974 
C 257.531149 314.653155 269.98034 306.334871 280.466038 295.849174 
C 290.951735 285.363477 299.270018 272.914286 304.944837 259.214062 
C 310.619656 245.513838 313.540648 230.829016 313.540648 216 
C 313.540648 201.170984 310.619656 186.486162 304.944837 172.785938 
C 299.270018 159.085714 290.951735 146.636523 280.466038 136.150826 
C 269.98034 125.665129 257.531149 117.346845 243.830925 111.672026 
C 230.130701 105.997208 215.445879 103.076215 200.616863 103.076215 
C 185.787848 103.076215 171.103026 105.997208 157.402802 111.672026 
C 143.702578 117.346845 131.253387 125.665129 120.767689 136.150826 
C 110.281992 146.636523 101.963709 159.085714 96.28889 172.785938 
C 90.614071 186.486162 87.693079 201.170984 87.693079 216 
L 59.462132 216 
C 59.462132 197.463731 63.113373 179.107703 70.206897 161.982423 
C 77.30042 144.857143 87.698274 129.295654 100.805396 116.188532 
C 113.912518 103.081411 129.474007 92.683556 146.599287 85.590033 
C 163.724566 78.49651 182.080594 74.845269 200.616863 74.845269 
C 219.153133 74.845269 237.509161 78.49651 254.63444 85.590033 
C 271.75972 92.683556 287.321209 103.081411 300.428331 116.188532 
C 313.535453 129.295654 323.933307 144.857143 331.02683 161.982423 
C 338.120354 179.107703 341.771595 197.463731 341.771595 216 
C 341.771595 234.536269 338.120354 252.892297 331.02683 270.017577 
C 323.933307 287.142857 313.535453 302.704346 300.428331 315.811468 
C 287.321209 328.918589 271.75972 339.316444 254.63444 346.409967 
C 237.509161 353.50349 219.153133 357.154731 200.616863 357.154731 
C 182.080594 357.154731 163.724566 353.50349 146.599287 346.409967 
C 129.474007 339.316444 113.912518 328.918589 100.805396 315.811468 
C 87.698274 302.704346 77.30042 287.142857 70.206897 270.017577 
C 63.113373 252.892297 59.462132 234.536269 59.462132 216 
z
" clip-path="url(#p7e5b67423f)" style="fill: #0665c5"/>
   </g>
   <g id="patch_7">
    <path d="M 59.462132 216 
C 59.462132 234.536269 63.113373 252.892297 70.206897 270.017577 
C 77.30042 287.142857 87.698274 302.704346 100.805396 315.811468 
C 113.912518 328.918589 129.474007 339.316444 146.599287 346.409967 
C 163.724566 353.50349 182.080594 357.154731 200.616863 357.154731 
C 219.153133 357.154731 237.509161 353.50349 254.63444 346.409967 
C 271.75972 339.316444 287.321209 328.918589 300.428331 315.811468 
C 313.535453 302.704346 323.933307 287.142857 331.02683 270.017577 
C 338.120354 252.892297 341.771595 234.536269 341.771595 216 
C 341.771595 197.463731 338.120354 179.107703 331.02683 161.982423 
C 323.933307 144.857143 313.535453 129.295654 300.428331 116.188532 
C 287.321209 103.081411 271.75972 92.683556 254.63444 85.590033 
C 237.509161 78.49651 219.153133 74.845269 200.616863 74.845269 
C 182.080594 74.845269 163.724566 78.49651 146.599287 85.590033 
C 129.474007 92.683556 113.912518 103.081411 100.805396 116.188532 
C 87.698274 129.295654 77.30042 144.857143 70.206897 161.982423 
C 63.113373 179.107703 59.462132 197.463731 59.462132 216 
L 31.231186 216 
C 31.231186 193.756477 35.612675 171.729244 44.124903 151.178908 
C 52.637131 130.628572 65.114556 111.954785 80.843102 96.226239 
C 96.571649 80.497693 115.245435 68.020268 135.795771 59.50804 
C 156.346107 50.995812 178.37334 46.614323 200.616863 46.614323 
C 222.860387 46.614323 244.88762 50.995812 265.437956 59.50804 
C 285.988292 68.020268 304.662078 80.497693 320.390625 96.226239 
C 336.119171 111.954785 348.596596 130.628572 357.108824 151.178908 
C 365.621052 171.729244 370.002541 193.756477 370.002541 216 
C 370.002541 238.243523 365.621052 260.270756 357.108824 280.821092 
C 348.596596 301.371428 336.119171 320.045215 320.390625 335.773761 
C 304.662078 351.502307 285.988292 363.979732 265.437956 372.49196 
C 244.88762 381.004188 222.860387 385.385677 200.616863 385.385677 
C 178.37334 385.385677 156.346107 381.004188 135.795771 372.49196 
C 115.245435 363.979732 96.571649 351.502307 80.843102 335.773761 
C 65.114556 320.045215 52.637131 301.371428 44.124903 280.821092 
C 35.612675 260.270756 31.231186 238.243523 31.231186 216 
z
" clip-path="url(#p7e5b67423f)" style="fill: #7f7f00"/>
   </g>
   <g id="patch_8">
    <path d="M 37.002863 172.159761 
C 40.8341 157.861389 46.523182 144.126731 53.924564 131.307161 
C 61.325946 118.487592 70.375968 106.693374 80.843102 96.226239 
L 60.880809 76.263945 
C 48.669152 88.475602 38.110793 102.235524 29.475847 117.191688 
C 20.840902 132.147852 14.20364 148.171621 9.733863 164.853054 
z
" clip-path="url(#p7e5b67423f)" style="fill: #f9a3f9"/>
   </g>
   <g id="patch_9">
    <path d="M 80.843102 96.226239 
C 96.571649 80.497693 115.245435 68.020268 135.795771 59.50804 
C 156.346107 50.995812 178.37334 46.614323 200.616863 46.614323 
L 200.616863 18.383377 
C 174.666086 18.383377 148.967648 23.495114 124.992256 33.426046 
C 101.016864 43.356979 79.23078 57.913975 60.880809 76.263945 
z
" clip-path="url(#p7e5b67423f)" style="fill: #21b2f6"/>
   </g>
   <g id="patch_10">
    <path d="M 200.616863 46.614323 
C 208.010345 46.614323 215.395901 47.098398 222.726131 48.063441 
C 230.05636 49.028484 237.315548 50.472426 244.457103 52.386 
L 251.763809 25.117 
C 243.431995 22.884497 234.962943 21.199898 226.411009 20.074014 
C 217.859074 18.948131 209.242592 18.383377 200.616863 18.383377 
z
" clip-path="url(#p7e5b67423f)" style="fill: #cccccc"/>
   </g>
   <g id="patch_11">
    <path d="M 244.457103 52.386 
C 258.755474 56.217237 272.490133 61.906319 285.309702 69.3077 
C 298.129271 76.709082 309.92349 85.759104 320.390625 96.226239 
L 340.352918 76.263945 
C 328.141261 64.052288 314.381339 53.493929 299.425175 44.858984 
C 284.469011 36.224038 268.445243 29.586776 251.763809 25.117 
z
" clip-path="url(#p7e5b67423f)" style="fill: #21b2f6"/>
   </g>
   <g id="patch_12">
    <path d="M 320.390625 96.226239 
C 323.003916 98.83953 325.53098 101.537649 327.967759 104.316263 
C 330.404537 107.094876 332.749725 109.952496 334.999556 112.884533 
L 357.396672 95.698622 
C 354.771869 92.277912 352.035816 88.944022 349.192908 85.702306 
C 346.349999 82.460591 343.401758 79.312785 340.352918 76.263945 
z
" clip-path="url(#p7e5b67423f)" style="fill: #cccccc"/>
   </g>
   <g id="patch_13">
    <path d="M 334.999556 112.884533 
C 341.753864 121.686918 347.626995 131.131681 352.53426 141.082631 
C 357.441526 151.03358 361.359224 161.442656 364.230864 172.159761 
L 391.499864 164.853054 
C 388.149618 152.349765 383.578969 140.205844 377.853826 128.596402 
C 372.128684 116.986961 365.276697 105.968071 357.396672 95.698622 
z
" clip-path="url(#p7e5b67423f)" style="fill: #21b2f6"/>
   </g>
   <g id="patch_14">
    <path d="M 364.230864 172.159761 
C 368.062101 186.458132 370.002541 201.197236 370.002541 216 
C 370.002541 230.802764 368.062101 245.541868 364.230864 259.840239 
L 391.499864 267.146946 
C 395.969641 250.465512 398.233487 233.269891 398.233487 216 
C 398.233487 198.730109 395.969641 181.534488 391.499864 164.853054 
z
" clip-path="url(#p7e5b67423f)" style="fill: #f9a3f9"/>
   </g>
   <g id="patch_15">
    <path d="M 364.230864 259.840239 
C 360.399627 274.138611 354.710545 287.873269 347.309163 300.692839 
C 339.907781 313.512408 330.857759 325.306626 320.390625 335.773761 
L 340.352918 355.736055 
C 352.564575 343.524398 363.122934 329.764476 371.75788 314.808312 
C 380.392825 299.852148 387.030087 283.828379 391.499864 267.146946 
z
" clip-path="url(#p7e5b67423f)" style="fill: #21b2f6"/>
   </g>
   <g id="patch_16">
    <path d="M 320.390625 335.773761 
C 309.92349 346.240896 298.129271 355.290918 285.309702 362.6923 
C 272.490133 370.093681 258.755474 375.782763 244.457103 379.614 
L 251.763809 406.883 
C 268.445243 402.413224 284.469011 395.775962 299.425175 387.141016 
C 314.381339 378.506071 328.141261 367.947712 340.352918 355.736055 
z
" clip-path="url(#p7e5b67423f)" style="fill: #f9a3f9"/>
   </g>
   <g id="patch_17">
    <path d="M 244.457103 379.614 
C 215.738985 387.308997 185.494742 387.308997 156.776624 379.614 
C 128.058507 371.919004 101.866224 356.796882 80.843102 335.773761 
C 59.819981 314.75064 44.69786 288.558357 37.002863 259.840239 
C 29.307867 231.122122 29.307867 200.877878 37.002863 172.159761 
L 9.733863 164.853054 
C 0.756367 198.357525 0.756367 233.642475 9.733863 267.146946 
C 18.711359 300.651416 36.353834 331.20908 60.880809 355.736055 
C 85.407784 380.263029 115.965447 397.905505 149.469918 406.883 
C 182.974388 415.860496 218.259339 415.860496 251.763809 406.883 
z
" clip-path="url(#p7e5b67423f)" style="fill: #a0f8a0"/>
   </g>
   <g id="matplotlib.axis_1"/>
   <g id="matplotlib.axis_2"/>
   <g id="LineCollection_1">
    <path d="M 257.078756 216 
L 370.002541 216 
" clip-path="url(#p7e5b67423f)" style="fill: none; stroke: #000000; stroke-width: 2"/>
    <path d="M 200.616863 159.538108 
L 200.616863 46.614323 
" clip-path="url(#p7e5b67423f)" style="fill: none; stroke: #000000; stroke-width: 2"/>
    <path d="M 144.154971 216 
L 31.231186 216 
" clip-path="url(#p7e5b67423f)" style="fill: none; stroke: #000000; stroke-width: 2"/>
    <path d="M 200.616863 272.461892 
L 200.616863 385.385677 
" clip-path="url(#p7e5b67423f)" style="fill: none; stroke: #000000; stroke-width: 2"/>
   </g>
   <g id="LineCollection_2">
    <path d="M 285.309702 216 
L 370.002541 216 
" clip-path="url(#p7e5b67423f)" style="fill: none; stroke: #000000; stroke-width: 1.5"/>
    <path d="M 260.503744 156.113119 
L 320.390625 96.226239 
" clip-path="url(#p7e5b67423f)" style="fill: none; stroke: #000000; stroke-width: 1.5"/>
    <path d="M 200.616863 131.307161 
L 200.616863 46.614323 
" clip-path="url(#p7e5b67423f)" style="fill: none; stroke: #000000; stroke-width: 1.5"/>
    <path d="M 140.729983 156.113119 
L 80.843102 96.226239 
" clip-path="url(#p7e5b67423f)" style="fill: none; stroke: #000000; stroke-width: 1.5"/>
    <path d="M 115.924025 216 
L 31.231186 216 
" clip-path="url(#p7e5b67423f)" style="fill: none; stroke: #000000; stroke-width: 1.5"/>
    <path d="M 140.729983 275.886881 
L 80.843102 335.773761 
" clip-path="url(#p7e5b67423f)" style="fill: none; stroke: #000000; stroke-width: 1.5"/>
    <path d="M 200.616863 300.692839 
L 200.616863 385.385677 
" clip-path="url(#p7e5b67423f)" style="fill: none; stroke: #000000; stroke-width: 1.5"/>
    <path d="M 260.503744 275.886881 
L 320.390625 335.773761 
" clip-path="url(#p7e5b67423f)" style="fill: none; stroke: #000000; stroke-width: 1.5"/>
   </g>
   <g id="LineCollection_3">
    <path d="M 313.540648 216 
L 370.002541 216 
" clip-path="url(#p7e5b67423f)" style="fill: none; stroke: #000000"/>
    <path d="M 309.692864 186.773174 
L 364.230864 172.159761 
" clip-path="url(#p7e5b67423f)" style="fill: none; stroke: #000000"/>
    <path d="M 298.41173 159.538108 
L 347.309163 131.307161 
" clip-path="url(#p7e5b67423f)" style="fill: none; stroke: #000000"/>
    <path d="M 280.466038 136.150826 
L 320.390625 96.226239 
" clip-path="url(#p7e5b67423f)" style="fill: none; stroke: #000000"/>
    <path d="M 257.078756 118.205134 
L 285.309702 69.3077 
" clip-path="url(#p7e5b67423f)" style="fill: none; stroke: #000000"/>
    <path d="M 229.84369 106.924 
L 244.457103 52.386 
" clip-path="url(#p7e5b67423f)" style="fill: none; stroke: #000000"/>
    <path d="M 200.616863 103.076215 
L 200.616863 46.614323 
" clip-path="url(#p7e5b67423f)" style="fill: none; stroke: #000000"/>
    <path d="M 171.390037 106.924 
L 156.776624 52.386 
" clip-path="url(#p7e5b67423f)" style="fill: none; stroke: #000000"/>
    <path d="M 144.154971 118.205134 
L 115.924025 69.3077 
" clip-path="url(#p7e5b67423f)" style="fill: none; stroke: #000000"/>
    <path d="M 120.767689 136.150826 
L 80.843102 96.226239 
" clip-path="url(#p7e5b67423f)" style="fill: none; stroke: #000000"/>
    <path d="M 102.821997 159.538108 
L 53.924564 131.307161 
" clip-path="url(#p7e5b67423f)" style="fill: none; stroke: #000000"/>
    <path d="M 91.540863 186.773174 
L 37.002863 172.159761 
" clip-path="url(#p7e5b67423f)" style="fill: none; stroke: #000000"/>
    <path d="M 87.693079 216 
L 31.231186 216 
" clip-path="url(#p7e5b67423f)" style="fill: none; stroke: #000000"/>
    <path d="M 91.540863 245.226826 
L 37.002863 259.840239 
" clip-path="url(#p7e5b67423f)" style="fill: none; stroke: #000000"/>
    <path d="M 102.821997 272.461892 
L 53.924564 300.692839 
" clip-path="url(#p7e5b67423f)" style="fill: none; stroke: #000000"/>
    <path d="M 120.767689 295.849174 
L 80.843102 335.773761 
" clip-path="url(#p7e5b67423f)" style="fill: none; stroke: #000000"/>
    <path d="M 144.154971 313.794866 
L 115.924025 362.6923 
" clip-path="url(#p7e5b67423f)" style="fill: none; stroke: #000000"/>
    <path d="M 171.390037 325.076 
L 156.776624 379.614 
" clip-path="url(#p7e5b67423f)" style="fill: none; stroke: #000000"/>
    <path d="M 200.616863 328.923785 
L 200.616863 385.385677 
" clip-path="url(#p7e5b67423f)" style="fill: none; stroke: #000000"/>
    <path d="M 229.84369 325.076 
L 244.457103 379.614 
" clip-path="url(#p7e5b67423f)" style="fill: none; stroke: #000000"/>
    <path d="M 257.078756 313.794866 
L 285.309702 362.6923 
" clip-path="url(#p7e5b67423f)" style="fill: none; stroke: #000000"/>
    <path d="M 280.466038 295.849174 
L 320.390625 335.773761 
" clip-path="url(#p7e5b67423f)" style="fill: none; stroke: #000000"/>
    <path d="M 298.41173 272.461892 
L 347.309163 300.692839 
" clip-path="url(#p7e5b67423f)" style="fill: none; stroke: #000000"/>
    <path d="M 309.692864 245.226826 
L 364.230864 259.840239 
" clip-path="url(#p7e5b67423f)" style="fill: none; stroke: #000000"/>
   </g>
   <g id="LineCollection_4">
    <path d="M 341.771595 216 
L 370.002541 216 
" clip-path="url(#p7e5b67423f)" style="fill: none; stroke: #000000; stroke-width: 0.5"/>
    <path d="M 341.469371 206.768039 
L 369.639873 204.921647 
" clip-path="url(#p7e5b67423f)" style="fill: none; stroke: #000000; stroke-width: 0.5"/>
    <path d="M 340.563996 197.57561 
L 368.553423 193.890733 
" clip-path="url(#p7e5b67423f)" style="fill: none; stroke: #000000; stroke-width: 0.5"/>
    <path d="M 339.059346 188.462078 
L 366.747842 182.954494 
" clip-path="url(#p7e5b67423f)" style="fill: none; stroke: #000000; stroke-width: 0.5"/>
    <path d="M 336.961864 179.466467 
L 364.230864 172.159761 
" clip-path="url(#p7e5b67423f)" style="fill: none; stroke: #000000; stroke-width: 0.5"/>
    <path d="M 334.280531 170.627299 
L 361.013265 161.552758 
" clip-path="url(#p7e5b67423f)" style="fill: none; stroke: #000000; stroke-width: 0.5"/>
    <path d="M 331.02683 161.982423 
L 357.108824 151.178908 
" clip-path="url(#p7e5b67423f)" style="fill: none; stroke: #000000; stroke-width: 0.5"/>
    <path d="M 327.214694 153.568859 
L 352.53426 141.082631 
" clip-path="url(#p7e5b67423f)" style="fill: none; stroke: #000000; stroke-width: 0.5"/>
    <path d="M 322.860446 145.422634 
L 347.309163 131.307161 
" clip-path="url(#p7e5b67423f)" style="fill: none; stroke: #000000; stroke-width: 0.5"/>
    <path d="M 317.982733 137.578633 
L 341.455907 121.89436 
" clip-path="url(#p7e5b67423f)" style="fill: none; stroke: #000000; stroke-width: 0.5"/>
    <path d="M 312.602441 130.070444 
L 334.999556 112.884533 
" clip-path="url(#p7e5b67423f)" style="fill: none; stroke: #000000; stroke-width: 0.5"/>
    <path d="M 306.742609 122.930219 
L 327.967759 104.316263 
" clip-path="url(#p7e5b67423f)" style="fill: none; stroke: #000000; stroke-width: 0.5"/>
    <path d="M 300.428331 116.188532 
L 320.390625 96.226239 
" clip-path="url(#p7e5b67423f)" style="fill: none; stroke: #000000; stroke-width: 0.5"/>
    <path d="M 293.686645 109.874254 
L 312.300601 88.649105 
" clip-path="url(#p7e5b67423f)" style="fill: none; stroke: #000000; stroke-width: 0.5"/>
    <path d="M 286.546419 104.014423 
L 303.73233 81.617307 
" clip-path="url(#p7e5b67423f)" style="fill: none; stroke: #000000; stroke-width: 0.5"/>
    <path d="M 279.03823 98.63413 
L 294.722504 75.160957 
" clip-path="url(#p7e5b67423f)" style="fill: none; stroke: #000000; stroke-width: 0.5"/>
    <path d="M 271.194229 93.756417 
L 285.309702 69.3077 
" clip-path="url(#p7e5b67423f)" style="fill: none; stroke: #000000; stroke-width: 0.5"/>
    <path d="M 263.048005 89.402169 
L 275.534233 64.082603 
" clip-path="url(#p7e5b67423f)" style="fill: none; stroke: #000000; stroke-width: 0.5"/>
    <path d="M 254.63444 85.590033 
L 265.437956 59.50804 
" clip-path="url(#p7e5b67423f)" style="fill: none; stroke: #000000; stroke-width: 0.5"/>
    <path d="M 245.989565 82.336332 
L 255.064105 55.603599 
" clip-path="url(#p7e5b67423f)" style="fill: none; stroke: #000000; stroke-width: 0.5"/>
    <path d="M 237.150396 79.655 
L 244.457103 52.386 
" clip-path="url(#p7e5b67423f)" style="fill: none; stroke: #000000; stroke-width: 0.5"/>
    <path d="M 228.154785 77.557518 
L 233.66237 49.869021 
" clip-path="url(#p7e5b67423f)" style="fill: none; stroke: #000000; stroke-width: 0.5"/>
    <path d="M 219.041253 76.052867 
L 222.726131 48.063441 
" clip-path="url(#p7e5b67423f)" style="fill: none; stroke: #000000; stroke-width: 0.5"/>
    <path d="M 209.848825 75.147492 
L 211.695217 46.97699 
" clip-path="url(#p7e5b67423f)" style="fill: none; stroke: #000000; stroke-width: 0.5"/>
    <path d="M 200.616863 74.845269 
L 200.616863 46.614323 
" clip-path="url(#p7e5b67423f)" style="fill: none; stroke: #000000; stroke-width: 0.5"/>
    <path d="M 191.384902 75.147492 
L 189.53851 46.97699 
" clip-path="url(#p7e5b67423f)" style="fill: none; stroke: #000000; stroke-width: 0.5"/>
    <path d="M 182.192474 76.052867 
L 178.507596 48.063441 
" clip-path="url(#p7e5b67423f)" style="fill: none; stroke: #000000; stroke-width: 0.5"/>
    <path d="M 173.078942 77.557518 
L 167.571357 49.869021 
" clip-path="url(#p7e5b67423f)" style="fill: none; stroke: #000000; stroke-width: 0.5"/>
    <path d="M 164.083331 79.655 
L 156.776624 52.386 
" clip-path="url(#p7e5b67423f)" style="fill: none; stroke: #000000; stroke-width: 0.5"/>
    <path d="M 155.244162 82.336332 
L 146.169622 55.603599 
" clip-path="url(#p7e5b67423f)" style="fill: none; stroke: #000000; stroke-width: 0.5"/>
    <path d="M 146.599287 85.590033 
L 135.795771 59.50804 
" clip-path="url(#p7e5b67423f)" style="fill: none; stroke: #000000; stroke-width: 0.5"/>
    <path d="M 138.185722 89.402169 
L 125.699494 64.082603 
" clip-path="url(#p7e5b67423f)" style="fill: none; stroke: #000000; stroke-width: 0.5"/>
    <path d="M 130.039498 93.756417 
L 115.924025 69.3077 
" clip-path="url(#p7e5b67423f)" style="fill: none; stroke: #000000; stroke-width: 0.5"/>
    <path d="M 122.195497 98.63413 
L 106.511223 75.160957 
" clip-path="url(#p7e5b67423f)" style="fill: none; stroke: #000000; stroke-width: 0.5"/>
    <path d="M 114.687308 104.014423 
L 97.501397 81.617307 
" clip-path="url(#p7e5b67423f)" style="fill: none; stroke: #000000; stroke-width: 0.5"/>
    <path d="M 107.547082 109.874254 
L 88.933126 88.649105 
" clip-path="url(#p7e5b67423f)" style="fill: none; stroke: #000000; stroke-width: 0.5"/>
    <path d="M 100.805396 116.188532 
L 80.843102 96.226239 
" clip-path="url(#p7e5b67423f)" style="fill: none; stroke: #000000; stroke-width: 0.5"/>
    <path d="M 94.491118 122.930219 
L 73.265968 104.316263 
" clip-path="url(#p7e5b67423f)" style="fill: none; stroke: #000000; stroke-width: 0.5"/>
    <path d="M 88.631286 130.070444 
L 66.234171 112.884533 
" clip-path="url(#p7e5b67423f)" style="fill: none; stroke: #000000; stroke-width: 0.5"/>
    <path d="M 83.250994 137.578633 
L 59.77782 121.89436 
" clip-path="url(#p7e5b67423f)" style="fill: none; stroke: #000000; stroke-width: 0.5"/>
    <path d="M 78.373281 145.422634 
L 53.924564 131.307161 
" clip-path="url(#p7e5b67423f)" style="fill: none; stroke: #000000; stroke-width: 0.5"/>
    <path d="M 74.019033 153.568859 
L 48.699467 141.082631 
" clip-path="url(#p7e5b67423f)" style="fill: none; stroke: #000000; stroke-width: 0.5"/>
    <path d="M 70.206897 161.982423 
L 44.124903 151.178908 
" clip-path="url(#p7e5b67423f)" style="fill: none; stroke: #000000; stroke-width: 0.5"/>
    <path d="M 66.953196 170.627299 
L 40.220462 161.552758 
" clip-path="url(#p7e5b67423f)" style="fill: none; stroke: #000000; stroke-width: 0.5"/>
    <path d="M 64.271863 179.466467 
L 37.002863 172.159761 
" clip-path="url(#p7e5b67423f)" style="fill: none; stroke: #000000; stroke-width: 0.5"/>
    <path d="M 62.174381 188.462078 
L 34.485885 182.954494 
" clip-path="url(#p7e5b67423f)" style="fill: none; stroke: #000000; stroke-width: 0.5"/>
    <path d="M 60.669731 197.57561 
L 32.680304 193.890733 
" clip-path="url(#p7e5b67423f)" style="fill: none; stroke: #000000; stroke-width: 0.5"/>
    <path d="M 59.764356 206.768039 
L 31.593854 204.921647 
" clip-path="url(#p7e5b67423f)" style="fill: none; stroke: #000000; stroke-width: 0.5"/>
    <path d="M 59.462132 216 
L 31.231186 216 
" clip-path="url(#p7e5b67423f)" style="fill: none; stroke: #000000; stroke-width: 0.5"/>
    <path d="M 59.764356 225.231961 
L 31.593854 227.078353 
" clip-path="url(#p7e5b67423f)" style="fill: none; stroke: #000000; stroke-width: 0.5"/>
    <path d="M 60.669731 234.42439 
L 32.680304 238.109267 
" clip-path="url(#p7e5b67423f)" style="fill: none; stroke: #000000; stroke-width: 0.5"/>
    <path d="M 62.174381 243.537922 
L 34.485885 249.045506 
" clip-path="url(#p7e5b67423f)" style="fill: none; stroke: #000000; stroke-width: 0.5"/>
    <path d="M 64.271863 252.533533 
L 37.002863 259.840239 
" clip-path="url(#p7e5b67423f)" style="fill: none; stroke: #000000; stroke-width: 0.5"/>
    <path d="M 66.953196 261.372701 
L 40.220462 270.447242 
" clip-path="url(#p7e5b67423f)" style="fill: none; stroke: #000000; stroke-width: 0.5"/>
    <path d="M 70.206897 270.017577 
L 44.124903 280.821092 
" clip-path="url(#p7e5b67423f)" style="fill: none; stroke: #000000; stroke-width: 0.5"/>
    <path d="M 74.019033 278.431141 
L 48.699467 290.917369 
" clip-path="url(#p7e5b67423f)" style="fill: none; stroke: #000000; stroke-width: 0.5"/>
    <path d="M 78.373281 286.577366 
L 53.924564 300.692839 
" clip-path="url(#p7e5b67423f)" style="fill: none; stroke: #000000; stroke-width: 0.5"/>
    <path d="M 83.250994 294.421367 
L 59.77782 310.10564 
" clip-path="url(#p7e5b67423f)" style="fill: none; stroke: #000000; stroke-width: 0.5"/>
    <path d="M 88.631286 301.929556 
L 66.234171 319.115467 
" clip-path="url(#p7e5b67423f)" style="fill: none; stroke: #000000; stroke-width: 0.5"/>
    <path d="M 94.491118 309.069781 
L 73.265968 327.683737 
" clip-path="url(#p7e5b67423f)" style="fill: none; stroke: #000000; stroke-width: 0.5"/>
    <path d="M 100.805396 315.811468 
L 80.843102 335.773761 
" clip-path="url(#p7e5b67423f)" style="fill: none; stroke: #000000; stroke-width: 0.5"/>
    <path d="M 107.547082 322.125746 
L 88.933126 343.350895 
" clip-path="url(#p7e5b67423f)" style="fill: none; stroke: #000000; stroke-width: 0.5"/>
    <path d="M 114.687308 327.985577 
L 97.501397 350.382693 
" clip-path="url(#p7e5b67423f)" style="fill: none; stroke: #000000; stroke-width: 0.5"/>
    <path d="M 122.195497 333.36587 
L 106.511223 356.839043 
" clip-path="url(#p7e5b67423f)" style="fill: none; stroke: #000000; stroke-width: 0.5"/>
    <path d="M 130.039498 338.243583 
L 115.924025 362.6923 
" clip-path="url(#p7e5b67423f)" style="fill: none; stroke: #000000; stroke-width: 0.5"/>
    <path d="M 138.185722 342.597831 
L 125.699494 367.917397 
" clip-path="url(#p7e5b67423f)" style="fill: none; stroke: #000000; stroke-width: 0.5"/>
    <path d="M 146.599287 346.409967 
L 135.795771 372.49196 
" clip-path="url(#p7e5b67423f)" style="fill: none; stroke: #000000; stroke-width: 0.5"/>
    <path d="M 155.244162 349.663668 
L 146.169622 376.396401 
" clip-path="url(#p7e5b67423f)" style="fill: none; stroke: #000000; stroke-width: 0.5"/>
    <path d="M 164.083331 352.345 
L 156.776624 379.614 
" clip-path="url(#p7e5b67423f)" style="fill: none; stroke: #000000; stroke-width: 0.5"/>
    <path d="M 173.078942 354.442482 
L 167.571357 382.130979 
" clip-path="url(#p7e5b67423f)" style="fill: none; stroke: #000000; stroke-width: 0.5"/>
    <path d="M 182.192474 355.947133 
L 178.507596 383.936559 
" clip-path="url(#p7e5b67423f)" style="fill: none; stroke: #000000; stroke-width: 0.5"/>
    <path d="M 191.384902 356.852508 
L 189.53851 385.02301 
" clip-path="url(#p7e5b67423f)" style="fill: none; stroke: #000000; stroke-width: 0.5"/>
    <path d="M 200.616863 357.154731 
L 200.616863 385.385677 
" clip-path="url(#p7e5b67423f)" style="fill: none; stroke: #000000; stroke-width: 0.5"/>
    <path d="M 209.848825 356.852508 
L 211.695217 385.02301 
" clip-path="url(#p7e5b67423f)" style="fill: none; stroke: #000000; stroke-width: 0.5"/>
    <path d="M 219.041253 355.947133 
L 222.726131 383.936559 
" clip-path="url(#p7e5b67423f)" style="fill: none; stroke: #000000; stroke-width: 0.5"/>
    <path d="M 228.154785 354.442482 
L 233.66237 382.130979 
" clip-path="url(#p7e5b67423f)" style="fill: none; stroke: #000000; stroke-width: 0.5"/>
    <path d="M 237.150396 352.345 
L 244.457103 379.614 
" clip-path="url(#p7e5b67423f)" style="fill: none; stroke: #000000; stroke-width: 0.5"/>
    <path d="M 245.989565 349.663668 
L 255.064105 376.396401 
" clip-path="url(#p7e5b67423f)" style="fill: none; stroke: #000000; stroke-width: 0.5"/>
    <path d="M 254.63444 346.409967 
L 265.437956 372.49196 
" clip-path="url(#p7e5b67423f)" style="fill: none; stroke: #000000; stroke-width: 0.5"/>
    <path d="M 263.048005 342.597831 
L 275.534233 367.917397 
" clip-path="url(#p7e5b67423f)" style="fill: none; stroke: #000000; stroke-width: 0.5"/>
    <path d="M 271.194229 338.243583 
L 285.309702 362.6923 
" clip-path="url(#p7e5b67423f)" style="fill: none; stroke: #000000; stroke-width: 0.5"/>
    <path d="M 279.03823 333.36587 
L 294.722504 356.839043 
" clip-path="url(#p7e5b67423f)" style="fill: none; stroke: #000000; stroke-width: 0.5"/>
    <path d="M 286.546419 327.985577 
L 303.73233 350.382693 
" clip-path="url(#p7e5b67423f)" style="fill: none; stroke: #000000; stroke-width: 0.5"/>
    <path d="M 293.686645 322.125746 
L 312.300601 343.350895 
" clip-path="url(#p7e5b67423f)" style="fill: none; stroke: #000000; stroke-width: 0.5"/>
    <path d="M 300.428331 315.811468 
L 320.390625 335.773761 
" clip-path="url(#p7e5b67423f)" style="fill: none; stroke: #000000; stroke-width: 0.5"/>
    <path d="M 306.742609 309.069781 
L 327.967759 327.683737 
" clip-path="url(#p7e5b67423f)" style="fill: none; stroke: #000000; stroke-width: 0.5"/>
    <path d="M 312.602441 301.929556 
L 334.999556 319.115467 
" clip-path="url(#p7e5b67423f)" style="fill: none; stroke: #000000; stroke-width: 0.5"/>
    <path d="M 317.982733 294.421367 
L 341.455907 310.10564 
" clip-path="url(#p7e5b67423f)" style="fill: none; stroke: #000000; stroke-width: 0.5"/>
    <path d="M 322.860446 286.577366 
L 347.309163 300.692839 
" clip-path="url(#p7e5b67423f)" style="fill: none; stroke: #000000; stroke-width: 0.5"/>
    <path d="M 327.214694 278.431141 
L 352.53426 290.917369 
" clip-path="url(#p7e5b67423f)" style="fill: none; stroke: #000000; stroke-width: 0.5"/>
    <path d="M 331.02683 270.017577 
L 357.108824 280.821092 
" clip-path="url(#p7e5b67423f)" style="fill: none; stroke: #000000; stroke-width: 0.5"/>
    <path d="M 334.280531 261.372701 
L 361.013265 270.447242 
" clip-path="url(#p7e5b67423f)" style="fill: none; stroke: #000000; stroke-width: 0.5"/>
    <path d="M 336.961864 252.533533 
L 364.230864 259.840239 
" clip-path="url(#p7e5b67423f)" style="fill: none; stroke: #000000; stroke-width: 0.5"/>
    <path d="M 339.059346 243.537922 
L 366.747842 249.045506 
" clip-path="url(#p7e5b67423f)" style="fill: none; stroke: #000000; stroke-width: 0.5"/>
    <path d="M 340.563996 234.42439 
L 368.553423 238.109267 
" clip-path="url(#p7e5b67423f)" style="fill: none; stroke: #000000; stroke-width: 0.5"/>
    <path d="M 341.469371 225.231961 
L 369.639873 227.078353 
" clip-path="url(#p7e5b67423f)" style="fill: none; stroke: #000000; stroke-width: 0.5"/>
   </g>
   <g id="text_1">
    <!-- Daily -->
    <g transform="translate(181.63952 200.3774) scale(0.15 -0.15)">
     <defs>
      <path id="DejaVuSans-44" d="M 1259 4147 
L 1259 519 
L 2022 519 
Q 2988 519 3436 956 
Q 3884 1394 3884 2338 
Q 3884 3275 3436 3711 
Q 2988 4147 2022 4147 
L 1259 4147 
z
M 628 4666 
L 1925 4666 
Q 3281 4666 3915 4102 
Q 4550 3538 4550 2338 
Q 4550 1131 3912 565 
Q 3275 0 1925 0 
L 628 0 
L 628 4666 
z
" transform="scale(0.015625)"/>
      <path id="DejaVuSans-61" d="M 2194 1759 
Q 1497 1759 1228 1600 
Q 959 1441 959 1056 
Q 959 750 1161 570 
Q 1363 391 1709 391 
Q 2188 391 2477 730 
Q 2766 1069 2766 1631 
L 2766 1759 
L 2194 1759 
z
M 3341 1997 
L 3341 0 
L 2766 0 
L 2766 531 
Q 2569 213 2275 61 
Q 1981 -91 1556 -91 
Q 1019 -91 701 211 
Q 384 513 384 1019 
Q 384 1609 779 1909 
Q 1175 2209 1959 2209 
L 2766 2209 
L 2766 2266 
Q 2766 2663 2505 2880 
Q 2244 3097 1772 3097 
Q 1472 3097 1187 3025 
Q 903 2953 641 2809 
L 641 3341 
Q 956 3463 1253 3523 
Q 1550 3584 1831 3584 
Q 2591 3584 2966 3190 
Q 3341 2797 3341 1997 
z
" transform="scale(0.015625)"/>
      <path id="DejaVuSans-69" d="M 603 3500 
L 1178 3500 
L 1178 0 
L 603 0 
L 603 3500 
z
M 603 4863 
L 1178 4863 
L 1178 4134 
L 603 4134 
L 603 4863 
z
" transform="scale(0.015625)"/>
      <path id="DejaVuSans-6c" d="M 603 4863 
L 1178 4863 
L 1178 0 
L 603 0 
L 603 4863 
z
" transform="scale(0.015625)"/>
      <path id="DejaVuSans-79" d="M 2059 -325 
Q 1816 -950 1584 -1140 
Q 1353 -1331 966 -1331 
L 506 -1331 
L 506 -850 
L 844 -850 
Q 1081 -850 1212 -737 
Q 1344 -625 1503 -206 
L 1606 56 
L 191 3500 
L 800 3500 
L 1894 763 
L 2988 3500 
L 3597 3500 
L 2059 -325 
z
" transform="scale(0.015625)"/>
     </defs>
     <use xlink:href="#DejaVuSans-44"/>
     <use xlink:href="#DejaVuSans-61" x="77.001953"/>
     <use xlink:href="#DejaVuSans-69" x="138.28125"/>
     <use xlink:href="#DejaVuSans-6c" x="166.064453"/>
     <use xlink:href="#DejaVuSans-79" x="193.847656"/>
    </g>
   </g>
   <g id="text_2">
    <!-- Periodic -->
    <g transform="translate(171.02702 220.139062) scale(0.15 -0.15)">
     <defs>
      <path id="DejaVuSans-50" d="M 1259 4147 
L 1259 2394 
L 2053 2394 
Q 2494 2394 2734 2622 
Q 2975 2850 2975 3272 
Q 2975 3691 2734 3919 
Q 2494 4147 2053 4147 
L 1259 4147 
z
M 628 4666 
L 2053 4666 
Q 2838 4666 3239 4311 
Q 3641 3956 3641 3272 
Q 3641 2581 3239 2228 
Q 2838 1875 2053 1875 
L 1259 1875 
L 1259 0 
L 628 0 
L 628 4666 
z
" transform="scale(0.015625)"/>
      <path id="DejaVuSans-65" d="M 3597 1894 
L 3597 1613 
L 953 1613 
Q 991 1019 1311 708 
Q 1631 397 2203 397 
Q 2534 397 2845 478 
Q 3156 559 3463 722 
L 3463 178 
Q 3153 47 2828 -22 
Q 2503 -91 2169 -91 
Q 1331 -91 842 396 
Q 353 884 353 1716 
Q 353 2575 817 3079 
Q 1281 3584 2069 3584 
Q 2775 3584 3186 3129 
Q 3597 2675 3597 1894 
z
M 3022 2063 
Q 3016 2534 2758 2815 
Q 2500 3097 2075 3097 
Q 1594 3097 1305 2825 
Q 1016 2553 972 2059 
L 3022 2063 
z
" transform="scale(0.015625)"/>
      <path id="DejaVuSans-72" d="M 2631 2963 
Q 2534 3019 2420 3045 
Q 2306 3072 2169 3072 
Q 1681 3072 1420 2755 
Q 1159 2438 1159 1844 
L 1159 0 
L 581 0 
L 581 3500 
L 1159 3500 
L 1159 2956 
Q 1341 3275 1631 3429 
Q 1922 3584 2338 3584 
Q 2397 3584 2469 3576 
Q 2541 3569 2628 3553 
L 2631 2963 
z
" transform="scale(0.015625)"/>
      <path id="DejaVuSans-6f" d="M 1959 3097 
Q 1497 3097 1228 2736 
Q 959 2375 959 1747 
Q 959 1119 1226 758 
Q 1494 397 1959 397 
Q 2419 397 2687 759 
Q 2956 1122 2956 1747 
Q 2956 2369 2687 2733 
Q 2419 3097 1959 3097 
z
M 1959 3584 
Q 2709 3584 3137 3096 
Q 3566 2609 3566 1747 
Q 3566 888 3137 398 
Q 2709 -91 1959 -91 
Q 1206 -91 779 398 
Q 353 888 353 1747 
Q 353 2609 779 3096 
Q 1206 3584 1959 3584 
z
" transform="scale(0.015625)"/>
      <path id="DejaVuSans-64" d="M 2906 2969 
L 2906 4863 
L 3481 4863 
L 3481 0 
L 2906 0 
L 2906 525 
Q 2725 213 2448 61 
Q 2172 -91 1784 -91 
Q 1150 -91 751 415 
Q 353 922 353 1747 
Q 353 2572 751 3078 
Q 1150 3584 1784 3584 
Q 2172 3584 2448 3432 
Q 2725 3281 2906 2969 
z
M 947 1747 
Q 947 1113 1208 752 
Q 1469 391 1925 391 
Q 2381 391 2643 752 
Q 2906 1113 2906 1747 
Q 2906 2381 2643 2742 
Q 2381 3103 1925 3103 
Q 1469 3103 1208 2742 
Q 947 2381 947 1747 
z
" transform="scale(0.015625)"/>
      <path id="DejaVuSans-63" d="M 3122 3366 
L 3122 2828 
Q 2878 2963 2633 3030 
Q 2388 3097 2138 3097 
Q 1578 3097 1268 2742 
Q 959 2388 959 1747 
Q 959 1106 1268 751 
Q 1578 397 2138 397 
Q 2388 397 2633 464 
Q 2878 531 3122 666 
L 3122 134 
Q 2881 22 2623 -34 
Q 2366 -91 2075 -91 
Q 1284 -91 818 406 
Q 353 903 353 1747 
Q 353 2603 823 3093 
Q 1294 3584 2113 3584 
Q 2378 3584 2631 3529 
Q 2884 3475 3122 3366 
z
" transform="scale(0.015625)"/>
     </defs>
     <use xlink:href="#DejaVuSans-50"/>
     <use xlink:href="#DejaVuSans-65" x="56.677734"/>
     <use xlink:href="#DejaVuSans-72" x="118.201172"/>
     <use xlink:href="#DejaVuSans-69" x="159.314453"/>
     <use xlink:href="#DejaVuSans-6f" x="187.097656"/>
     <use xlink:href="#DejaVuSans-64" x="248.279297"/>
     <use xlink:href="#DejaVuSans-69" x="311.755859"/>
     <use xlink:href="#DejaVuSans-63" x="339.539062"/>
    </g>
   </g>
   <g id="text_3">
    <!-- Schedule -->
    <g transform="translate(166.150848 239.900725) scale(0.15 -0.15)">
     <defs>
      <path id="DejaVuSans-53" d="M 3425 4513 
L 3425 3897 
Q 3066 4069 2747 4153 
Q 2428 4238 2131 4238 
Q 1616 4238 1336 4038 
Q 1056 3838 1056 3469 
Q 1056 3159 1242 3001 
Q 1428 2844 1947 2747 
L 2328 2669 
Q 3034 2534 3370 2195 
Q 3706 1856 3706 1288 
Q 3706 609 3251 259 
Q 2797 -91 1919 -91 
Q 1588 -91 1214 -16 
Q 841 59 441 206 
L 441 856 
Q 825 641 1194 531 
Q 1563 422 1919 422 
Q 2459 422 2753 634 
Q 3047 847 3047 1241 
Q 3047 1584 2836 1778 
Q 2625 1972 2144 2069 
L 1759 2144 
Q 1053 2284 737 2584 
Q 422 2884 422 3419 
Q 422 4038 858 4394 
Q 1294 4750 2059 4750 
Q 2388 4750 2728 4690 
Q 3069 4631 3425 4513 
z
" transform="scale(0.015625)"/>
      <path id="DejaVuSans-68" d="M 3513 2113 
L 3513 0 
L 2938 0 
L 2938 2094 
Q 2938 2591 2744 2837 
Q 2550 3084 2163 3084 
Q 1697 3084 1428 2787 
Q 1159 2491 1159 1978 
L 1159 0 
L 581 0 
L 581 4863 
L 1159 4863 
L 1159 2956 
Q 1366 3272 1645 3428 
Q 1925 3584 2291 3584 
Q 2894 3584 3203 3211 
Q 3513 2838 3513 2113 
z
" transform="scale(0.015625)"/>
      <path id="DejaVuSans-75" d="M 544 1381 
L 544 3500 
L 1119 3500 
L 1119 1403 
Q 1119 906 1312 657 
Q 1506 409 1894 409 
Q 2359 409 2629 706 
Q 2900 1003 2900 1516 
L 2900 3500 
L 3475 3500 
L 3475 0 
L 2900 0 
L 2900 538 
Q 2691 219 2414 64 
Q 2138 -91 1772 -91 
Q 1169 -91 856 284 
Q 544 659 544 1381 
z
M 1991 3584 
L 1991 3584 
z
" transform="scale(0.015625)"/>
     </defs>
     <use xlink:href="#DejaVuSans-53"/>
     <use xlink:href="#DejaVuSans-63" x="63.476562"/>
     <use xlink:href="#DejaVuSans-68" x="118.457031"/>
     <use xlink:href="#DejaVuSans-65" x="181.835938"/>
     <use xlink:href="#DejaVuSans-64" x="243.359375"/>
     <use xlink:href="#DejaVuSans-75" x="306.835938"/>
     <use xlink:href="#DejaVuSans-6c" x="370.214844"/>
     <use xlink:href="#DejaVuSans-65" x="397.998047"/>
    </g>
   </g>
   <g id="text_4">
    <!-- 18 -->
    <g style="fill: #ffffff" transform="translate(262.922979 219.587187) scale(0.13 -0.13)">
     <defs>
      <path id="DejaVuSans-31" d="M 794 531 
L 1825 531 
L 1825 4091 
L 703 3866 
L 703 4441 
L 1819 4666 
L 2450 4666 
L 2450 531 
L 3481 531 
L 3481 0 
L 794 0 
L 794 531 
z
" transform="scale(0.015625)"/>
      <path id="DejaVuSans-38" d="M 2034 2216 
Q 1584 2216 1326 1975 
Q 1069 1734 1069 1313 
Q 1069 891 1326 650 
Q 1584 409 2034 409 
Q 2484 409 2743 651 
Q 3003 894 3003 1313 
Q 3003 1734 2745 1975 
Q 2488 2216 2034 2216 
z
M 1403 2484 
Q 997 2584 770 2862 
Q 544 3141 544 3541 
Q 544 4100 942 4425 
Q 1341 4750 2034 4750 
Q 2731 4750 3128 4425 
Q 3525 4100 3525 3541 
Q 3525 3141 3298 2862 
Q 3072 2584 2669 2484 
Q 3125 2378 3379 2068 
Q 3634 1759 3634 1313 
Q 3634 634 3220 271 
Q 2806 -91 2034 -91 
Q 1263 -91 848 271 
Q 434 634 434 1313 
Q 434 1759 690 2068 
Q 947 2378 1403 2484 
z
M 1172 3481 
Q 1172 3119 1398 2916 
Q 1625 2713 2034 2713 
Q 2441 2713 2670 2916 
Q 2900 3119 2900 3481 
Q 2900 3844 2670 4047 
Q 2441 4250 2034 4250 
Q 1625 4250 1398 4047 
Q 1172 3844 1172 3481 
z
" transform="scale(0.015625)"/>
     </defs>
     <use xlink:href="#DejaVuSans-31"/>
     <use xlink:href="#DejaVuSans-38" x="63.623047"/>
    </g>
   </g>
   <g id="text_5">
    <!-- 12 -->
    <g style="fill: #ffffff" transform="translate(192.345613 149.009822) scale(0.13 -0.13)">
     <defs>
      <path id="DejaVuSans-32" d="M 1228 531 
L 3431 531 
L 3431 0 
L 469 0 
L 469 531 
Q 828 903 1448 1529 
Q 2069 2156 2228 2338 
Q 2531 2678 2651 2914 
Q 2772 3150 2772 3378 
Q 2772 3750 2511 3984 
Q 2250 4219 1831 4219 
Q 1534 4219 1204 4116 
Q 875 4013 500 3803 
L 500 4441 
Q 881 4594 1212 4672 
Q 1544 4750 1819 4750 
Q 2544 4750 2975 4387 
Q 3406 4025 3406 3419 
Q 3406 3131 3298 2873 
Q 3191 2616 2906 2266 
Q 2828 2175 2409 1742 
Q 1991 1309 1228 531 
z
" transform="scale(0.015625)"/>
     </defs>
     <use xlink:href="#DejaVuSans-31"/>
     <use xlink:href="#DejaVuSans-32" x="63.623047"/>
    </g>
   </g>
   <g id="text_6">
    <!-- 6 -->
    <g style="fill: #ffffff" transform="translate(125.903873 219.587187) scale(0.13 -0.13)">
     <defs>
      <path id="DejaVuSans-36" d="M 2113 2584 
Q 1688 2584 1439 2293 
Q 1191 2003 1191 1497 
Q 1191 994 1439 701 
Q 1688 409 2113 409 
Q 2538 409 2786 701 
Q 3034 994 3034 1497 
Q 3034 2003 2786 2293 
Q 2538 2584 2113 2584 
z
M 3366 4563 
L 3366 3988 
Q 3128 4100 2886 4159 
Q 2644 4219 2406 4219 
Q 1781 4219 1451 3797 
Q 1122 3375 1075 2522 
Q 1259 2794 1537 2939 
Q 1816 3084 2150 3084 
Q 2853 3084 3261 2657 
Q 3669 2231 3669 1497 
Q 3669 778 3244 343 
Q 2819 -91 2113 -91 
Q 1303 -91 875 529 
Q 447 1150 447 2328 
Q 447 3434 972 4092 
Q 1497 4750 2381 4750 
Q 2619 4750 2861 4703 
Q 3103 4656 3366 4563 
z
" transform="scale(0.015625)"/>
     </defs>
     <use xlink:href="#DejaVuSans-36"/>
    </g>
   </g>
   <g id="text_7">
    <!--  0/24 -->
    <g style="fill: #ffffff" transform="translate(183.95452 290.164553) scale(0.13 -0.13)">
     <defs>
      <path id="DejaVuSans-20" transform="scale(0.015625)"/>
      <path id="DejaVuSans-30" d="M 2034 4250 
Q 1547 4250 1301 3770 
Q 1056 3291 1056 2328 
Q 1056 1369 1301 889 
Q 1547 409 2034 409 
Q 2525 409 2770 889 
Q 3016 1369 3016 2328 
Q 3016 3291 2770 3770 
Q 2525 4250 2034 4250 
z
M 2034 4750 
Q 2819 4750 3233 4129 
Q 3647 3509 3647 2328 
Q 3647 1150 3233 529 
Q 2819 -91 2034 -91 
Q 1250 -91 836 529 
Q 422 1150 422 2328 
Q 422 3509 836 4129 
Q 1250 4750 2034 4750 
z
" transform="scale(0.015625)"/>
      <path id="DejaVuSans-2f" d="M 1625 4666 
L 2156 4666 
L 531 -594 
L 0 -594 
L 1625 4666 
z
" transform="scale(0.015625)"/>
      <path id="DejaVuSans-34" d="M 2419 4116 
L 825 1625 
L 2419 1625 
L 2419 4116 
z
M 2253 4666 
L 3047 4666 
L 3047 1625 
L 3713 1625 
L 3713 1100 
L 3047 1100 
L 3047 0 
L 2419 0 
L 2419 1100 
L 313 1100 
L 313 1709 
L 2253 4666 
z
" transform="scale(0.015625)"/>
     </defs>
     <use xlink:href="#DejaVuSans-20"/>
     <use xlink:href="#DejaVuSans-30" x="31.787109"/>
     <use xlink:href="#DejaVuSans-2f" x="95.410156"/>
     <use xlink:href="#DejaVuSans-32" x="129.101562"/>
     <use xlink:href="#DejaVuSans-34" x="192.724609"/>
    </g>
   </g>
   <g id="text_8">
    <!-- 15 -->
    <g style="fill: #ffffff" transform="translate(262.213641 149.71916) scale(0.13 -0.13)">
     <defs>
      <path id="DejaVuSans-35" d="M 691 4666 
L 3169 4666 
L 3169 4134 
L 1269 4134 
L 1269 2991 
Q 1406 3038 1543 3061 
Q 1681 3084 1819 3084 
Q 2600 3084 3056 2656 
Q 3513 2228 3513 1497 
Q 3513 744 3044 326 
Q 2575 -91 1722 -91 
Q 1428 -91 1123 -41 
Q 819 9 494 109 
L 494 744 
Q 775 591 1075 516 
Q 1375 441 1709 441 
Q 2250 441 2565 725 
Q 2881 1009 2881 1497 
Q 2881 1984 2565 2268 
Q 2250 2553 1709 2553 
Q 1456 2553 1204 2497 
Q 953 2441 691 2322 
L 691 4666 
z
" transform="scale(0.015625)"/>
     </defs>
     <use xlink:href="#DejaVuSans-31"/>
     <use xlink:href="#DejaVuSans-35" x="63.623047"/>
    </g>
   </g>
   <g id="text_9">
    <!-- 9 -->
    <g style="fill: #ffffff" transform="translate(126.613211 149.71916) scale(0.13 -0.13)">
     <defs>
      <path id="DejaVuSans-39" d="M 703 97 
L 703 672 
Q 941 559 1184 500 
Q 1428 441 1663 441 
Q 2288 441 2617 861 
Q 2947 1281 2994 2138 
Q 2813 1869 2534 1725 
Q 2256 1581 1919 1581 
Q 1219 1581 811 2004 
Q 403 2428 403 3163 
Q 403 3881 828 4315 
Q 1253 4750 1959 4750 
Q 2769 4750 3195 4129 
Q 3622 3509 3622 2328 
Q 3622 1225 3098 567 
Q 2575 -91 1691 -91 
Q 1453 -91 1209 -44 
Q 966 3 703 97 
z
M 1959 2075 
Q 2384 2075 2632 2365 
Q 2881 2656 2881 3163 
Q 2881 3666 2632 3958 
Q 2384 4250 1959 4250 
Q 1534 4250 1286 3958 
Q 1038 3666 1038 3163 
Q 1038 2656 1286 2365 
Q 1534 2075 1959 2075 
z
" transform="scale(0.015625)"/>
     </defs>
     <use xlink:href="#DejaVuSans-39"/>
    </g>
   </g>
   <g id="text_10">
    <!-- 3 -->
    <g style="fill: #ffffff" transform="translate(126.613211 289.455215) scale(0.13 -0.13)">
     <defs>
      <path id="DejaVuSans-33" d="M 2597 2516 
Q 3050 2419 3304 2112 
Q 3559 1806 3559 1356 
Q 3559 666 3084 287 
Q 2609 -91 1734 -91 
Q 1441 -91 1130 -33 
Q 819 25 488 141 
L 488 750 
Q 750 597 1062 519 
Q 1375 441 1716 441 
Q 2309 441 2620 675 
Q 2931 909 2931 1356 
Q 2931 1769 2642 2001 
Q 2353 2234 1838 2234 
L 1294 2234 
L 1294 2753 
L 1863 2753 
Q 2328 2753 2575 2939 
Q 2822 3125 2822 3475 
Q 2822 3834 2567 4026 
Q 2313 4219 1838 4219 
Q 1578 4219 1281 4162 
Q 984 4106 628 3988 
L 628 4550 
Q 988 4650 1302 4700 
Q 1616 4750 1894 4750 
Q 2613 4750 3031 4423 
Q 3450 4097 3450 3541 
Q 3450 3153 3228 2886 
Q 3006 2619 2597 2516 
z
" transform="scale(0.015625)"/>
     </defs>
     <use xlink:href="#DejaVuSans-33"/>
    </g>
   </g>
   <g id="text_11">
    <!-- 21 -->
    <g style="fill: #ffffff" transform="translate(262.213641 289.455215) scale(0.13 -0.13)">
     <use xlink:href="#DejaVuSans-32"/>
     <use xlink:href="#DejaVuSans-31" x="63.623047"/>
    </g>
   </g>
   <g id="legend_1">
    <g id="patch_18">
     <path d="M 365.710162 85.095877 
L 426.528912 85.095877 
Q 428.528912 85.095877 428.528912 83.095877 
L 428.528912 25.383377 
Q 428.528912 23.383377 426.528912 23.383377 
L 365.710162 23.383377 
Q 363.710162 23.383377 363.710162 25.383377 
L 363.710162 83.095877 
Q 363.710162 85.095877 365.710162 85.095877 
z
" style="fill: #ffffff; stroke: #cccccc; stroke-linejoin: miter"/>
    </g>
    <g id="patch_19">
     <path d="M 367.710162 34.981814 
L 387.710162 34.981814 
L 387.710162 27.981814 
L 367.710162 27.981814 
z
" style="fill: #f9a3f9"/>
    </g>
    <g id="text_12">
     <!-- Free -->
     <g transform="translate(395.710162 34.981814) scale(0.1 -0.1)">
      <defs>
       <path id="DejaVuSans-46" d="M 628 4666 
L 3309 4666 
L 3309 4134 
L 1259 4134 
L 1259 2759 
L 3109 2759 
L 3109 2228 
L 1259 2228 
L 1259 0 
L 628 0 
L 628 4666 
z
" transform="scale(0.015625)"/>
      </defs>
      <use xlink:href="#DejaVuSans-46"/>
      <use xlink:href="#DejaVuSans-72" x="50.269531"/>
      <use xlink:href="#DejaVuSans-65" x="89.132812"/>
      <use xlink:href="#DejaVuSans-65" x="150.65625"/>
     </g>
    </g>
    <g id="patch_20">
     <path d="M 367.710162 49.659939 
L 387.710162 49.659939 
L 387.710162 42.659939 
L 367.710162 42.659939 
z
" style="fill: #21b2f6"/>
    </g>
    <g id="text_13">
     <!-- Work -->
     <g transform="translate(395.710162 49.659939) scale(0.1 -0.1)">
      <defs>
       <path id="DejaVuSans-57" d="M 213 4666 
L 850 4666 
L 1831 722 
L 2809 4666 
L 3519 4666 
L 4500 722 
L 5478 4666 
L 6119 4666 
L 4947 0 
L 4153 0 
L 3169 4050 
L 2175 0 
L 1381 0 
L 213 4666 
z
" transform="scale(0.015625)"/>
       <path id="DejaVuSans-6b" d="M 581 4863 
L 1159 4863 
L 1159 1991 
L 2875 3500 
L 3609 3500 
L 1753 1863 
L 3688 0 
L 2938 0 
L 1159 1709 
L 1159 0 
L 581 0 
L 581 4863 
z
" transform="scale(0.015625)"/>
      </defs>
      <use xlink:href="#DejaVuSans-57"/>
      <use xlink:href="#DejaVuSans-6f" x="93.001953"/>
      <use xlink:href="#DejaVuSans-72" x="154.183594"/>
      <use xlink:href="#DejaVuSans-6b" x="195.296875"/>
     </g>
    </g>
    <g id="patch_21">
     <path d="M 367.710162 64.338064 
L 387.710162 64.338064 
L 387.710162 57.338064 
L 367.710162 57.338064 
z
" style="fill: #cccccc"/>
    </g>
    <g id="text_14">
     <!-- Break -->
     <g transform="translate(395.710162 64.338064) scale(0.1 -0.1)">
      <defs>
       <path id="DejaVuSans-42" d="M 1259 2228 
L 1259 519 
L 2272 519 
Q 2781 519 3026 730 
Q 3272 941 3272 1375 
Q 3272 1813 3026 2020 
Q 2781 2228 2272 2228 
L 1259 2228 
z
M 1259 4147 
L 1259 2741 
L 2194 2741 
Q 2656 2741 2882 2914 
Q 3109 3088 3109 3444 
Q 3109 3797 2882 3972 
Q 2656 4147 2194 4147 
L 1259 4147 
z
M 628 4666 
L 2241 4666 
Q 2963 4666 3353 4366 
Q 3744 4066 3744 3513 
Q 3744 3084 3544 2831 
Q 3344 2578 2956 2516 
Q 3422 2416 3680 2098 
Q 3938 1781 3938 1306 
Q 3938 681 3513 340 
Q 3088 0 2303 0 
L 628 0 
L 628 4666 
z
" transform="scale(0.015625)"/>
      </defs>
      <use xlink:href="#DejaVuSans-42"/>
      <use xlink:href="#DejaVuSans-72" x="68.603516"/>
      <use xlink:href="#DejaVuSans-65" x="107.466797"/>
      <use xlink:href="#DejaVuSans-61" x="168.990234"/>
      <use xlink:href="#DejaVuSans-6b" x="230.269531"/>
     </g>
    </g>
    <g id="patch_22">
     <path d="M 367.710162 79.016189 
L 387.710162 79.016189 
L 387.710162 72.016189 
L 367.710162 72.016189 
z
" style="fill: #a0f8a0"/>
    </g>
    <g id="text_15">
     <!-- Sleep -->
     <g transform="translate(395.710162 79.016189) scale(0.1 -0.1)">
      <defs>
       <path id="DejaVuSans-70" d="M 1159 525 
L 1159 -1331 
L 581 -1331 
L 581 3500 
L 1159 3500 
L 1159 2969 
Q 1341 3281 1617 3432 
Q 1894 3584 2278 3584 
Q 2916 3584 3314 3078 
Q 3713 2572 3713 1747 
Q 3713 922 3314 415 
Q 2916 -91 2278 -91 
Q 1894 -91 1617 61 
Q 1341 213 1159 525 
z
M 3116 1747 
Q 3116 2381 2855 2742 
Q 2594 3103 2138 3103 
Q 1681 3103 1420 2742 
Q 1159 2381 1159 1747 
Q 1159 1113 1420 752 
Q 1681 391 2138 391 
Q 2594 391 2855 752 
Q 3116 1113 3116 1747 
z
" transform="scale(0.015625)"/>
      </defs>
      <use xlink:href="#DejaVuSans-53"/>
      <use xlink:href="#DejaVuSans-6c" x="63.476562"/>
      <use xlink:href="#DejaVuSans-65" x="91.259766"/>
      <use xlink:href="#DejaVuSans-65" x="152.783203"/>
      <use xlink:href="#DejaVuSans-70" x="214.306641"/>
     </g>
    </g>
   </g>
  </g>
 </g>
 <defs>
  <clipPath id="p7e5b67423f">
   <path d="M 398.233487 216 
C 398.233487 190.049223 393.12175 164.350784 383.190817 140.375392 
C 373.259885 116.4 358.702889 94.613916 340.352918 76.263945 
C 322.002947 57.913975 300.216863 43.356979 276.241471 33.426046 
C 252.266079 23.495114 226.567641 18.383376 200.616863 18.383376 
C 174.666086 18.383376 148.967648 23.495114 124.992256 33.426046 
C 101.016864 43.356979 79.23078 57.913975 60.880809 76.263945 
C 42.530838 94.613916 27.973842 116.4 18.04291 140.375392 
C 8.111977 164.350784 3.00024 190.049223 3.00024 216 
C 3.00024 241.950777 8.111977 267.649216 18.04291 291.624608 
C 27.973842 315.6 42.530838 337.386084 60.880809 355.736055 
C 79.23078 374.086025 101.016864 388.643021 124.992256 398.573954 
C 148.967648 408.504886 174.666086 413.616624 200.616863 413.616624 
C 226.567641 413.616624 252.266079 408.504886 276.241471 398.573954 
C 300.216863 388.643021 322.002947 374.086025 340.352918 355.736055 
C 358.702889 337.386084 373.259885 315.6 383.190817 291.624608 
C 393.12175 267.649216 398.233487 241.950777 398.233487 216 
M 200.616863 216 
C 200.616863 216 200.616863 216 200.616863 216 
C 200.616863 216 200.616863 216 200.616863 216 
C 200.616863 216 200.616863 216 200.616863 216 
C 200.616863 216 200.616863 216 200.616863 216 
C 200.616863 216 200.616863 216 200.616863 216 
C 200.616863 216 200.616863 216 200.616863 216 
C 200.616863 216 200.616863 216 200.616863 216 
C 200.616863 216 200.616863 216 200.616863 216 
C 200.616863 216 200.616863 216 200.616863 216 
C 200.616863 216 200.616863 216 200.616863 216 
C 200.616863 216 200.616863 216 200.616863 216 
C 200.616863 216 200.616863 216 200.616863 216 
C 200.616863 216 200.616863 216 200.616863 216 
C 200.616863 216 200.616863 216 200.616863 216 
C 200.616863 216 200.616863 216 200.616863 216 
C 200.616863 216 200.616863 216 200.616863 216 
z
"/>
  </clipPath>
 </defs>
</svg>
